<svg xmlns="http://www.w3.org/2000/svg" width="845.419" height="805.527" viewBox="0 0 845.419 805.527">
  <g id="Group_202" data-name="Group 202" transform="translate(-142.831 -11.5)">
    <g id="Group_165" data-name="Group 165" transform="translate(146.652 14.78)">
      <g id="triangle36" transform="translate(736.895 2.515)">
        <path id="Path_255" data-name="Path 255" d="M649.761,97.5l-103.1-56.976,27.8-24.889L649.9,71.091l.005-1.069L574.7,14.734a.432.432,0,0,0-.544.026L545.637,40.287a.435.435,0,0,0,.079.7l104.039,57.5Z" transform="translate(-545.494 -14.65)" fill="#00a8ea"/>
      </g>
      <g id="triangle36-2" data-name="triangle36" transform="translate(736.894 28.042)">
        <path id="Path_256" data-name="Path 256" d="M649.364,163.814,547.516,30.332l102.24,56.505.005-.984L546.134,28.582a.426.426,0,0,0-.535.1.432.432,0,0,0-.017.545l103.774,136Z" transform="translate(-545.494 -28.527)" fill="#00a8ea"/>
      </g>
      <g id="triangle36-3" data-name="triangle36" transform="translate(418.35 736.991)">
        <path id="Path_257" data-name="Path 257" d="M374.408,477.5l138.687-62.533,13.592,63.31.883.005-13.745-64.018a.431.431,0,0,0-.6-.3l-140.9,63.529Z" transform="translate(-372.329 -413.921)" fill="#00a8ea"/>
      </g>
      <g id="triangle36-4" data-name="triangle36" transform="translate(746.669 773.171)">
        <path id="Path_258" data-name="Path 258" d="M641.79,433.589l-90.982,29.062,2.794.014L641.785,434.5Z" transform="translate(-550.808 -433.589)" fill="#00a8ea"/>
      </g>
      <g id="triangle36-5" data-name="triangle36" transform="translate(765.409)">
        <path id="Path_259" data-name="Path 259" d="M636.887,71.17l-74.2-54.55,74.492-2.472.006-.865L561.413,15.8a.432.432,0,0,0-.241.78l75.71,55.661Z" transform="translate(-560.995 -13.283)" fill="#00a8ea"/>
      </g>
      <g id="triangle36-6" data-name="triangle36" transform="translate(737.457 312.581)">
        <path id="Path_260" data-name="Path 260" d="M648.058,239.277l-100.417-5.92,81.131-49.2,19.49,15.176.005-1.091-19.2-14.95a.436.436,0,0,0-.489-.028l-82.571,50.07a.431.431,0,0,0,.2.8l101.848,6Z" transform="translate(-545.8 -183.206)" fill="#00a8ea"/>
      </g>
      <g id="triangle36-7" data-name="triangle36" transform="translate(93.531 768.934)">
        <path id="Path_261" data-name="Path 261" d="M196.752,461.258l16.541-28.211,3.333,28.312.87,0L214,431.669a.432.432,0,0,0-.8-.169l-17.444,29.753Z" transform="translate(-195.753 -431.286)" fill="#00a8ea"/>
      </g>
      <g id="triangle36-8" data-name="triangle36" transform="translate(727.329 744.772)">
        <path id="Path_262" data-name="Path 262" d="M641.79,433.589l-90.982,29.062,2.793.014L641.785,434.5Z" transform="translate(-531.467 -405.191)" fill="#00a8ea"/>
        <path id="Path_263" data-name="Path 263" d="M650.641,441.857l-95.388-23.7a.438.438,0,0,0-.522.313l-14.437,57.039.89.005L555.461,419.1l95.174,23.642Z" transform="translate(-540.294 -418.151)" fill="#00a8ea"/>
      </g>
      <g id="triangle36-9" data-name="triangle36" transform="translate(745.381 554.271)">
        <path id="Path_264" data-name="Path 264" d="M643.41,331.181,591.3,361.09l-39.359-10.515,91.552-35.058.006-.925-93.11,35.654a.431.431,0,0,0,.042.819l40.817,10.907a.457.457,0,0,0,.111.015.43.43,0,0,0,.217-.057L643.4,332.18Z" transform="translate(-550.108 -314.592)" fill="#00a8ea"/>
      </g>
      <g id="triangle36-10" data-name="triangle36" transform="translate(558.994 736.991)">
        <path id="Path_265" data-name="Path 265" d="M463.382,478.281,449.8,415.019,502.443,433.7,479.7,478.364l.966.006,22.766-44.719a.431.431,0,0,0-.239-.6l-53.834-19.1a.434.434,0,0,0-.43.083.428.428,0,0,0-.136.414l13.7,63.832Z" transform="translate(-448.785 -413.921)" fill="#00a8ea"/>
      </g>
      <g id="triangle36-11" data-name="triangle36" transform="translate(589.911 756.09)">
        <path id="Path_266" data-name="Path 266" d="M466.558,469.652l22.42-44.04,27.895,44.3,1.023.006-28.59-45.405a.4.4,0,0,0-.386-.2.426.426,0,0,0-.364.234l-22.963,45.106Z" transform="translate(-465.592 -424.304)" fill="#00a8ea"/>
      </g>
      <g id="triangle36-12" data-name="triangle36" transform="translate(612.827 756.091)">
        <path id="Path_267" data-name="Path 267" d="M506.414,469.908l1.023.005-27.807-44.16,95.036,44.5,2.058.011-98.06-45.921a.433.433,0,0,0-.55.622Z" transform="translate(-478.049 -424.304)" fill="#00a8ea"/>
      </g>
      <g id="triangle36-13" data-name="triangle36" transform="translate(612.827 744.771)">
        <path id="Path_268" data-name="Path 268" d="M478.3,430.294l96.368,45.128,2.06.011-96.607-45.238,126.72-11.129-14.288,56.448.89.006,14.383-56.833a.435.435,0,0,0-.09-.384.452.452,0,0,0-.366-.151L478.444,429.474a.434.434,0,0,0-.388.355A.427.427,0,0,0,478.3,430.294Z" transform="translate(-478.049 -418.151)" fill="#00a8ea"/>
      </g>
      <g id="triangle36-14" data-name="triangle36" transform="translate(110.917 768.935)">
        <path id="Path_269" data-name="Path 269" d="M209.562,461.362l-3.39-28.783L251,461.574l1.6.007L205.87,431.355a.431.431,0,0,0-.662.412l3.486,29.591Z" transform="translate(-205.204 -431.287)" fill="#00a8ea"/>
      </g>
      <g id="triangle36-15" data-name="triangle36" transform="translate(396.778 473.146)">
        <path id="Path_270" data-name="Path 270" d="M365.464,305.479a.425.425,0,0,1-.215-.059.435.435,0,0,1-.206-.285l-4.431-21.418a.431.431,0,0,1,.373-.515L470.614,270.5a.42.42,0,0,1,.473.337.433.433,0,0,1-.291.5L365.6,305.456A.418.418,0,0,1,365.464,305.479ZM361.553,284l4.238,20.483L466.4,271.854Z" transform="translate(-360.602 -270.492)" fill="#00a8ea"/>
      </g>
      <g id="triangle36-16" data-name="triangle36" transform="translate(53.135 735.723)">
        <path id="Path_271" data-name="Path 271" d="M174.659,476.207l5.655-61.8,51.11,32.606-17.233,29.394,1,.006,17.191-29.32a.433.433,0,0,0-.14-.583L180.18,413.3a.443.443,0,0,0-.423-.024.438.438,0,0,0-.239.35L173.793,476.2Z" transform="translate(-173.793 -413.232)" fill="#00a8ea"/>
      </g>
      <g id="triangle36-17" data-name="triangle36" transform="translate(58.858 673.277)">
        <path id="Path_272" data-name="Path 272" d="M229.393,475.807a.446.446,0,0,1-.23-.068L177.1,442.526a.431.431,0,0,1-.017-.717l88.879-62.445a.431.431,0,0,1,.651.508L229.8,475.529a.435.435,0,0,1-.269.256A.429.429,0,0,1,229.393,475.807Zm-51.281-33.662,51.069,32.582L265.3,380.887Z" transform="translate(-176.904 -379.286)" fill="#00a8ea"/>
      </g>
      <g id="triangle36-18" data-name="triangle36" transform="translate(110.917 673.277)">
        <path id="Path_273" data-name="Path 273" d="M363.441,478.323h-.006l-157.807-2.516a.432.432,0,0,1-.4-.587l36.82-95.658a.433.433,0,0,1,.675-.18l120.987,98.174a.432.432,0,0,1-.274.767Zm-157.18-3.37L362.2,477.44,242.646,380.427Z" transform="translate(-205.204 -379.286)" fill="#00a8ea"/>
      </g>
      <g id="triangle36-19" data-name="triangle36" transform="translate(110.917 768.934)">
        <path id="Path_274" data-name="Path 274" d="M251,461.574l1.6.007-45.472-29.407,154.676,2.467-49.46,27.245,1.773.009,49.526-27.282a.435.435,0,0,0,.212-.482.43.43,0,0,0-.412-.327l-157.807-2.518h-.006a.432.432,0,0,0-.237.795Z" transform="translate(-205.204 -431.286)" fill="#00a8ea"/>
      </g>
      <g id="triangle36-20" data-name="triangle36" transform="translate(218.065 771.451)">
        <path id="Path_275" data-name="Path 275" d="M265.224,460.747l48.095-26.495-16.376,26.657,1.01.006,16.957-27.6a.436.436,0,0,0-.055-.524.428.428,0,0,0-.521-.079l-50.884,28.029Z" transform="translate(-263.451 -432.654)" fill="#00a8ea"/>
      </g>
      <g id="triangle36-21" data-name="triangle36" transform="translate(251.557 771.449)">
        <path id="Path_276" data-name="Path 276" d="M282.668,460.915l16.784-27.321,95.57,27.895,3.137.015-98.78-28.831a.425.425,0,0,0-.489.188L281.658,460.91Z" transform="translate(-281.658 -432.653)" fill="#00a8ea"/>
      </g>
      <g id="triangle36-22" data-name="triangle36" transform="translate(506.408 397.026)">
        <path id="Path_277" data-name="Path 277" d="M603.053,379.34a.423.423,0,0,1-.158-.031L420.47,306.066a.431.431,0,0,1-.114-.734l92.354-76.118a.417.417,0,0,1,.349-.094.429.429,0,0,1,.3.2l90.069,149.363a.432.432,0,0,1-.372.655Zm-181.587-73.8L602.02,378.028,512.874,230.2Z" transform="translate(-420.198 -229.112)" fill="#00a8ea"/>
      </g>
      <g id="triangle36-23" data-name="triangle36" transform="translate(598.764 363.184)">
        <path id="Path_278" data-name="Path 278" d="M560.9,394.785a.431.431,0,0,1-.368-.21l-90.07-149.362a.44.44,0,0,1-.042-.353.436.436,0,0,1,.235-.265l75.677-33.844a.434.434,0,0,1,.607.361L561.336,394.32a.436.436,0,0,1-.3.445A.485.485,0,0,1,560.9,394.785Zm-89.446-149.6,88.874,147.382-14.2-180.775Z" transform="translate(-470.404 -210.715)" fill="#00a8ea"/>
      </g>
      <g id="triangle36-24" data-name="triangle36" transform="translate(674.441 362.649)">
        <path id="Path_279" data-name="Path 279" d="M526.366,395.029l-.037,0a.433.433,0,0,1-.392-.4L511.545,211.425a.432.432,0,0,1,.112-.326.428.428,0,0,1,.314-.14l63.017-.535a.615.615,0,0,1,.344.167.435.435,0,0,1,.077.375L526.785,394.707A.434.434,0,0,1,526.366,395.029ZM512.44,211.818,526.6,392.035l47.83-180.742Z" transform="translate(-511.543 -210.424)" fill="#00a8ea"/>
      </g>
      <g id="triangle36-25" data-name="triangle36" transform="translate(688.833 530.353)">
        <path id="Path_280" data-name="Path 280" d="M669.3,325.508l-92.884,35.567-55.5-42.7,148.5-15.914,0-.87L519.753,317.631a.431.431,0,0,0-.217.771l56.547,43.5a.425.425,0,0,0,.261.09.419.419,0,0,0,.156-.028l92.8-35.534Z" transform="translate(-519.367 -301.59)" fill="#00a8ea"/>
      </g>
      <g id="triangle36-26" data-name="triangle36" transform="translate(674.44 303.173)">
        <path id="Path_281" data-name="Path 281" d="M511.974,238.966a.432.432,0,0,1-.3-.743l62.754-60.011a.432.432,0,0,1,.73.311L575.423,238a.431.431,0,0,1-.427.434l-63.017.533ZM574.3,179.53l-61.24,58.564,61.5-.522Z" transform="translate(-511.543 -178.092)" fill="#00a8ea"/>
      </g>
      <g id="triangle36-27" data-name="triangle36" transform="translate(736.894 28.043)">
        <path id="Path_282" data-name="Path 282" d="M648.9,253.911,546.655,303.4l-.3-273.161,103,134.987.007-1.415L546.268,28.7a.431.431,0,0,0-.774.263l.3,275.129a.43.43,0,0,0,.429.43.424.424,0,0,0,.189-.042L648.9,254.873Z" transform="translate(-545.494 -28.528)" fill="#00a8ea"/>
      </g>
      <g id="triangle36-28" data-name="triangle36" transform="translate(737.194 303.173)">
        <path id="Path_283" data-name="Path 283" d="M546.349,238.432a.432.432,0,0,1-.428-.43l-.263-59.476a.433.433,0,0,1,.142-.324.456.456,0,0,1,.339-.108l82.834,9.409a.43.43,0,0,1,.175.8l-82.571,50.07A.429.429,0,0,1,546.349,238.432Zm.173-59.425.258,58.229,80.839-49.02Z" transform="translate(-545.657 -178.092)" fill="#00a8ea"/>
      </g>
      <g id="triangle36-29" data-name="triangle36" transform="translate(737.193 253.426)">
        <path id="Path_284" data-name="Path 284" d="M648.585,186.594l-19.843,23.585-81.124-9.212,101.143-48.956.005-.962L545.9,200.838a.432.432,0,0,0,.14.819l82.835,9.407.048,0a.428.428,0,0,0,.331-.153l19.324-22.97Z" transform="translate(-545.656 -151.049)" fill="#00a8ea"/>
      </g>
      <g id="triangle36-30" data-name="triangle36" transform="translate(820.029 288.972)">
        <path id="Path_285" data-name="Path 285" d="M610.611,203.624,591.8,194.27l18.971-22.549.007-1.348-19.992,23.763a.432.432,0,0,0,.138.664l19.68,9.786Z" transform="translate(-590.687 -170.372)" fill="#00a8ea"/>
      </g>
      <g id="triangle36-31" data-name="triangle36" transform="translate(820.029 312.58)">
        <path id="Path_286" data-name="Path 286" d="M610.584,198.246,594.776,185.94l15.829,7.871.005-.964-19.3-9.6a.432.432,0,0,0-.456.728l19.724,15.356Z" transform="translate(-590.687 -183.206)" fill="#00a8ea"/>
      </g>
      <g id="triangle36-32" data-name="triangle36" transform="translate(268.725 681.208)">
        <path id="Path_287" data-name="Path 287" d="M291.3,474.686l95.886,27.989,3.135.015-97.74-28.528,173.38-89.249-41.886,117.95.914.005,42.149-118.695a.431.431,0,0,0-.6-.528L291.223,473.889a.432.432,0,0,0,.077.8Z" transform="translate(-290.991 -383.597)" fill="#00a8ea"/>
      </g>
      <g id="triangle36-33" data-name="triangle36" transform="translate(401.809 681.209)">
        <path id="Path_288" data-name="Path 288" d="M364.251,502.867l41.989-118.24L519.935,439.8l-140.057,63.15,2.079.011L521.131,440.2a.432.432,0,0,0,.011-.782L406.184,383.639a.453.453,0,0,0-.353-.011.435.435,0,0,0-.241.256L363.337,502.862Z" transform="translate(-363.337 -383.597)" fill="#00a8ea"/>
      </g>
      <g id="triangle36-34" data-name="triangle36" transform="translate(401.21 507.27)">
        <path id="Path_289" data-name="Path 289" d="M413.773,327.814a.426.426,0,0,1-.257-.086l-50.332-37.909a.431.431,0,0,1,.407-.751l79.9,29.076a.431.431,0,0,1-.026.819L413.9,327.8A.358.358,0,0,1,413.773,327.814Zm-47.762-36.947,47.848,36.04,28.108-8.4Z" transform="translate(-363.011 -289.042)" fill="#00a8ea"/>
      </g>
      <g id="triangle36-35" data-name="triangle36" transform="translate(401.209 473.146)">
        <path id="Path_290" data-name="Path 290" d="M443.338,334.554a.447.447,0,0,1-.145-.026l-79.9-29.076a.437.437,0,0,1-.285-.414.432.432,0,0,1,.3-.4l105.2-34.122a.427.427,0,0,1,.449.116.433.433,0,0,1,.085.456l-25.3,63.2A.433.433,0,0,1,443.338,334.554ZM364.77,305.07l78.326,28.5,24.8-61.954Z" transform="translate(-363.011 -270.492)" fill="#00a8ea"/>
      </g>
      <g id="triangle36-36" data-name="triangle36" transform="translate(444.035 536.344)">
        <path id="Path_291" data-name="Path 291" d="M386.721,450.574a.358.358,0,0,1-.063-.006.43.43,0,0,1-.366-.451L393.8,314.091a.429.429,0,0,1,.307-.39l29.565-8.835a.429.429,0,0,1,.423.1.434.434,0,0,1,.12.418L387.142,450.248A.431.431,0,0,1,386.721,450.574Zm7.923-136.133L387.4,445.769l35.79-139.857Z" transform="translate(-386.292 -304.847)" fill="#00a8ea"/>
      </g>
      <g id="triangle36-37" data-name="triangle36" transform="translate(481.107 473.148)">
        <path id="Path_292" data-name="Path 292" d="M614.6,344.6h-.018L406.855,334.554a.432.432,0,0,1-.342-.2.427.427,0,0,1-.037-.394l25.3-63.2a.427.427,0,0,1,.561-.239l182.424,73.241a.432.432,0,0,1-.162.833ZM407.5,333.72l204.559,9.891L432.418,271.487Z" transform="translate(-406.445 -270.492)" fill="#00a8ea"/>
      </g>
      <g id="triangle36-38" data-name="triangle36" transform="translate(485.111 308.304)">
        <path id="Path_293" data-name="Path 293" d="M430.348,346.589a.415.415,0,0,1-.156-.029.432.432,0,0,1-.269-.348l-21.3-164.843a.43.43,0,0,1,.692-.4L522.971,269.7a.423.423,0,0,1,.167.333.428.428,0,0,1-.158.338l-92.354,76.12A.436.436,0,0,1,430.348,346.589ZM409.614,182.3l21.065,163.028,91.337-75.281Z" transform="translate(-408.621 -180.881)" fill="#00a8ea"/>
      </g>
      <g id="triangle36-39" data-name="triangle36" transform="translate(485.11 263.882)">
        <path id="Path_294" data-name="Path 294" d="M522.7,290.742a.425.425,0,0,1-.263-.092L408.787,201.927a.431.431,0,0,1,.088-.734l99.006-44.421a.43.43,0,0,1,.605.346l14.648,133.146a.428.428,0,0,1-.219.423A.438.438,0,0,1,522.7,290.742ZM409.882,201.688,522.166,289.34,507.694,157.8Z" transform="translate(-408.62 -156.733)" fill="#00a8ea"/>
      </g>
      <g id="triangle36-40" data-name="triangle36" transform="translate(536.863 28.043)">
        <path id="Path_295" data-name="Path 295" d="M484.437,265.229a.474.474,0,0,1-.072-.005.432.432,0,0,1-.346-.326L436.765,68.687a.434.434,0,0,1,.337-.524L637.133,28.536a.433.433,0,0,1,.447.659L484.8,265.033A.428.428,0,0,1,484.437,265.229ZM437.711,68.923l46.912,194.8L636.3,29.581Z" transform="translate(-436.754 -28.528)" fill="#00a8ea"/>
      </g>
      <g id="triangle36-41" data-name="triangle36" transform="translate(584.116 263.883)">
        <path id="Path_296" data-name="Path 296" d="M477.519,290.742a.422.422,0,0,1-.213-.057.428.428,0,0,1-.213-.327L462.444,157.213a.432.432,0,0,1,.749-.339l90.323,99.3a.429.429,0,0,1,.1.377.438.438,0,0,1-.248.307L477.7,290.7A.405.405,0,0,1,477.519,290.742Zm-14.072-132.3,14.439,131.237,74.591-33.358Z" transform="translate(-462.442 -156.733)" fill="#00a8ea"/>
      </g>
      <g id="triangle36-42" data-name="triangle36" transform="translate(584.116 263.882)">
        <path id="Path_297" data-name="Path 297" d="M553.2,256.9h-.013a.434.434,0,0,1-.305-.142l-90.323-99.3a.431.431,0,0,1,.427-.708l153.078,39.291a.433.433,0,0,1,.191.73L553.5,256.779A.436.436,0,0,1,553.2,256.9Zm-89.034-98.956L553.22,255.85l61.871-59.169Z" transform="translate(-462.441 -156.733)" fill="#00a8ea"/>
      </g>
      <g id="triangle36-43" data-name="triangle36" transform="translate(584.116 28.043)">
        <path id="Path_298" data-name="Path 298" d="M615.949,304.52a.406.406,0,0,1-.1-.013L462.766,265.217a.433.433,0,0,1-.256-.653L615.29,28.725a.431.431,0,0,1,.793.234l.3,275.129a.431.431,0,0,1-.434.432Zm-152.388-39.99,151.957,39-.3-273.115Z" transform="translate(-462.441 -28.528)" fill="#00a8ea"/>
      </g>
      <g id="triangle36-44" data-name="triangle36" transform="translate(444.035 536.344)">
        <path id="Path_299" data-name="Path 299" d="M386.721,450.574a.436.436,0,0,1-.313-.136.429.429,0,0,1-.1-.4l37.072-144.864a.431.431,0,0,1,.664-.248L581.306,413.553a.432.432,0,0,1-.166.78L386.8,450.566A.388.388,0,0,1,386.721,450.574ZM424.06,305.986,387.31,449.593l192.653-35.919Z" transform="translate(-386.292 -304.847)" fill="#00a8ea"/>
      </g>
      <g id="triangle36-45" data-name="triangle36" transform="translate(444.035 644.975)">
        <path id="Path_300" data-name="Path 300" d="M501.679,456.78a.418.418,0,0,1-.186-.044L386.535,400.954a.432.432,0,0,1,.11-.813l194.336-36.234a.433.433,0,0,1,.454.21.428.428,0,0,1-.05.495l-79.378,92.018A.431.431,0,0,1,501.679,456.78ZM388.091,400.75l113.48,55.065,78.359-90.833Z" transform="translate(-386.292 -363.9)" fill="#00a8ea"/>
      </g>
      <g id="triangle36-46" data-name="triangle36" transform="translate(481.107 536.344)">
        <path id="Path_301" data-name="Path 301" d="M564.14,414.34a.44.44,0,0,1-.243-.075L406.631,305.634a.43.43,0,0,1-.164-.493.451.451,0,0,1,.431-.294l207.725,10.048a.431.431,0,0,1,.364.627L564.527,414.1a.431.431,0,0,1-.28.223A.412.412,0,0,1,564.14,414.34ZM408.366,305.783l155.616,107.49,49.931-97.549Z" transform="translate(-406.444 -304.847)" fill="#00a8ea"/>
      </g>
      <g id="triangle36-47" data-name="triangle36" transform="translate(558.993 644.974)">
        <path id="Path_302" data-name="Path 302" d="M503.048,475.882a.494.494,0,0,1-.143-.026l-53.832-19.1a.429.429,0,0,1-.182-.688l79.378-92.018a.432.432,0,0,1,.749.379L503.471,475.546a.435.435,0,0,1-.213.283A.443.443,0,0,1,503.048,475.882Zm-53.093-19.729,52.782,18.728,25.047-108.949Z" transform="translate(-448.785 -363.9)" fill="#00a8ea"/>
      </g>
      <g id="triangle36-48" data-name="triangle36" transform="translate(612.827 644.975)">
        <path id="Path_303" data-name="Path 303" d="M478.479,475.882a.433.433,0,0,1-.419-.53l25.546-111.118a.432.432,0,0,1,.3-.318.442.442,0,0,1,.423.1l103.378,99.8a.431.431,0,0,1,.108.454.437.437,0,0,1-.37.287L478.518,475.88Zm25.8-110.709L479.035,474.968l127.39-11.188Z" transform="translate(-478.049 -363.9)" fill="#00a8ea"/>
      </g>
      <g id="triangle36-49" data-name="triangle36" transform="translate(638.373 546.39)">
        <path id="Path_304" data-name="Path 304" d="M492.366,409.755a.428.428,0,0,1-.3-.127.432.432,0,0,1-.079-.5l50.46-98.583a.431.431,0,0,1,.647-.145L599.639,353.9a.43.43,0,0,1-.064.725l-107.008,55.08A.434.434,0,0,1,492.366,409.755ZM542.975,311.4l-49.612,96.927,105.211-54.154Z" transform="translate(-491.936 -310.308)" fill="#00a8ea"/>
      </g>
      <g id="triangle36-50" data-name="triangle36" transform="translate(638.373 600.801)">
        <path id="Path_305" data-name="Path 305" d="M595.745,484.718a.431.431,0,0,1-.3-.12L492.068,384.8a.429.429,0,0,1-.12-.412.434.434,0,0,1,.3-.313L640.07,339.9a.433.433,0,0,1,.43.11.428.428,0,0,1,.1.43l-44.445,143.97a.434.434,0,0,1-.305.291A.377.377,0,0,1,595.745,484.718ZM493.2,384.693l102.343,98.8,44-142.526Z" transform="translate(-491.936 -339.886)" fill="#00a8ea"/>
      </g>
      <g id="triangle36-51" data-name="triangle36" transform="translate(638.373 589.895)">
        <path id="Path_306" data-name="Path 306" d="M492.366,389.9a.432.432,0,0,1-.2-.815l107.01-55.08a.436.436,0,0,1,.309-.033l40.818,10.9a.437.437,0,0,1,.32.412.432.432,0,0,1-.309.419L492.491,389.882A.421.421,0,0,1,492.366,389.9Zm107.06-55.05L496.7,387.722l141.906-42.4Z" transform="translate(-491.936 -333.958)" fill="#00a8ea"/>
      </g>
      <g id="triangle36-52" data-name="triangle36" transform="translate(0 628.222)">
        <path id="Path_307" data-name="Path 307" d="M145.338,427.343a.435.435,0,0,1-.4-.281.43.43,0,0,1,.186-.522l122.422-71.687a.437.437,0,0,1,.331-.044.425.425,0,0,1,.263.2l25.318,45.056a.433.433,0,0,1-.3.637L145.416,427.335A.368.368,0,0,1,145.338,427.343ZM267.6,355.818,147.656,426.055,292.4,399.963Z" transform="translate(-144.908 -354.793)" fill="#00a8ea"/>
      </g>
      <g id="triangle36-53" data-name="triangle36" transform="translate(122.421 613.202)">
        <path id="Path_308" data-name="Path 308" d="M237.2,407.567l-.039,0a.43.43,0,0,1-.335-.219L211.513,362.29a.43.43,0,0,1,.292-.635l75.581-15.02a.437.437,0,0,1,.454.2.433.433,0,0,1-.041.5l-50.264,60.074A.431.431,0,0,1,237.2,407.567Zm-24.646-45.181,24.718,43.993,49.077-58.656Z" transform="translate(-211.458 -346.628)" fill="#00a8ea"/>
      </g>
      <g id="triangle36-54" data-name="triangle36" transform="translate(361.606 278.271)">
        <path id="Path_309" data-name="Path 309" d="M341.912,256.863a.422.422,0,0,1-.107-.013.43.43,0,0,1-.309-.526l23.741-91.445a.431.431,0,0,1,.835.217l-23.741,91.445A.431.431,0,0,1,341.912,256.863Z" transform="translate(-341.482 -164.555)" fill="#00a8ea"/>
      </g>
      <g id="triangle36-55" data-name="triangle36" transform="translate(361.606 278.272)">
        <path id="Path_310" data-name="Path 310" d="M341.912,256.863a.43.43,0,0,1-.416-.539l23.741-91.445a.431.431,0,0,1,.543-.305l99.762,30.032a.432.432,0,0,1,.066.8l-123.5,61.413A.4.4,0,0,1,341.912,256.863Zm24.048-91.333-23.392,90.093,121.68-60.5Z" transform="translate(-341.482 -164.555)" fill="#00a8ea"/>
      </g>
      <g id="triangle36-56" data-name="triangle36" transform="translate(361.606 369.716)">
        <path id="Path_311" data-name="Path 311" d="M377.084,331.265a.433.433,0,0,1-.412-.305L341.5,214.824a.432.432,0,0,1,.664-.476l144.8,103.43a.431.431,0,0,1-.2.78l-109.629,12.7A.244.244,0,0,1,377.084,331.265Zm-34.39-115.479,34.7,114.578,108.158-12.535Z" transform="translate(-341.482 -214.266)" fill="#00a8ea"/>
      </g>
      <g id="triangle36-57" data-name="triangle36" transform="translate(361.606 308.303)">
        <path id="Path_312" data-name="Path 312" d="M486.714,346.589a.423.423,0,0,1-.248-.081l-144.8-103.43a.431.431,0,0,1,.057-.738l123.505-61.413a.424.424,0,0,1,.4.006.439.439,0,0,1,.224.326l21.3,164.843a.433.433,0,0,1-.206.427A.447.447,0,0,1,486.714,346.589Zm-143.964-103.8L486.16,345.229,465.066,181.97Z" transform="translate(-341.482 -180.881)" fill="#00a8ea"/>
      </g>
      <g id="triangle36-58" data-name="triangle36" transform="translate(321.427 485.852)">
        <path id="Path_313" data-name="Path 313" d="M320.07,359.6a.424.424,0,0,1-.318-.142.43.43,0,0,1,0-.583l75.351-81.341a.431.431,0,0,1,.739.206l4.432,21.418a.432.432,0,0,1-.164.432l-79.783,59.923A.424.424,0,0,1,320.07,359.6Zm75.1-80.864L323.65,355.944l75.727-56.877Z" transform="translate(-319.64 -277.399)" fill="#00a8ea"/>
      </g>
      <g id="triangle36-59" data-name="triangle36" transform="translate(321.426 507.271)">
        <path id="Path_314" data-name="Path 314" d="M320.071,349.828a.431.431,0,0,1-.258-.776L399.6,289.126a.442.442,0,0,1,.519,0l50.332,37.911a.431.431,0,0,1-.188.771L320.144,349.822A.253.253,0,0,1,320.071,349.828Zm79.785-59.815-78.1,58.661,127.375-21.55Z" transform="translate(-319.64 -289.042)" fill="#00a8ea"/>
      </g>
      <g id="triangle36-60" data-name="triangle36" transform="translate(321.427 545.179)">
        <path id="Path_315" data-name="Path 315" d="M442.678,446.541a.428.428,0,0,1-.291-.116L319.778,332.413a.431.431,0,0,1,.223-.741l130.114-22.014a.422.422,0,0,1,.359.1.427.427,0,0,1,.143.346l-7.505,136.029a.431.431,0,0,1-.27.375A.424.424,0,0,1,442.678,446.541ZM321.007,332.376,442.3,445.167l7.426-134.57Z" transform="translate(-319.64 -309.65)" fill="#00a8ea"/>
      </g>
      <g id="triangle36-61" data-name="triangle36" transform="translate(688.833 362.65)">
        <path id="Path_316" data-name="Path 316" d="M669.825,299.656,520.5,393.647l48.218-182.2L670.056,254.26l.005-.936L568.591,210.458a.433.433,0,0,0-.585.287L519.381,394.486a.433.433,0,0,0,.416.543.444.444,0,0,0,.232-.066l149.79-94.282Z" transform="translate(-519.367 -210.425)" fill="#00a8ea"/>
      </g>
      <g id="triangle36-62" data-name="triangle36" transform="translate(688.833 451.883)">
        <path id="Path_317" data-name="Path 317" d="M669.424,337.4,521.608,353.244,669.82,259.956l.006-1.023L519.569,353.508a.429.429,0,0,0-.178.506.434.434,0,0,0,.407.291l.048,0,149.575-16.03Z" transform="translate(-519.367 -258.933)" fill="#00a8ea"/>
      </g>
      <g id="triangle36-63" data-name="triangle36" transform="translate(737.457 362.649)">
        <path id="Path_318" data-name="Path 318" d="M647.871,253.326l-99.16-41.89,99.344,5.855,0-.863-101.8-6a.408.408,0,0,0-.447.333.431.431,0,0,0,.252.495l101.8,43.007Z" transform="translate(-545.8 -210.424)" fill="#00a8ea"/>
      </g>
      <g id="triangle36-64" data-name="triangle36" transform="translate(147.738 612.854)">
        <path id="Path_319" data-name="Path 319" d="M225.65,407.725a.433.433,0,0,1-.329-.708l50.264-60.076a.433.433,0,0,1,.331-.155l99.348-.348h0a.432.432,0,0,1,.16.831L225.814,407.694A.426.426,0,0,1,225.65,407.725Zm50.468-60.076-49.027,58.6,145.935-58.937Z" transform="translate(-225.22 -346.439)" fill="#00a8ea"/>
      </g>
      <g id="triangle36-65" data-name="triangle36" transform="translate(147.738 612.855)">
        <path id="Path_320" data-name="Path 320" d="M346.637,505.9a.432.432,0,0,1-.27-.1L225.38,407.628a.431.431,0,0,1,.11-.734L375.1,346.468a.446.446,0,0,1,.434.066.435.435,0,0,1,.153.412l-28.627,158.6a.434.434,0,0,1-.274.328A.442.442,0,0,1,346.637,505.9ZM226.493,407.42l119.85,97.253L374.7,347.563Z" transform="translate(-225.221 -346.439)" fill="#00a8ea"/>
      </g>
      <g id="triangle36-66" data-name="triangle36" transform="translate(198.001 567.193)">
        <path id="Path_321" data-name="Path 321" d="M252.974,368.488a.431.431,0,0,1-.149-.835l123.426-46.009a.431.431,0,0,1,.532.605l-24.076,45.659a.434.434,0,0,1-.381.232l-99.348.348Zm122.517-45.641-120.1,44.769,96.672-.338Z" transform="translate(-252.544 -321.617)" fill="#00a8ea"/>
      </g>
      <g id="triangle36-67" data-name="triangle36" transform="translate(268.724 612.855)">
        <path id="Path_322" data-name="Path 322" d="M291.42,505.9a.433.433,0,0,1-.423-.508l28.627-158.6a.429.429,0,0,1,.226-.307.439.439,0,0,1,.381-.007l146.685,68.354a.432.432,0,0,1,.015.775l-175.31,90.244A.458.458,0,0,1,291.42,505.9Zm28.954-158.4L292,504.683l173.75-89.44Z" transform="translate(-290.99 -346.439)" fill="#00a8ea"/>
      </g>
      <g id="triangle36-68" data-name="triangle36" transform="translate(297.351 567.193)">
        <path id="Path_323" data-name="Path 323" d="M453.665,436.495a.422.422,0,0,1-.18-.04L306.8,368.1a.434.434,0,0,1-.2-.592l24.076-45.659a.431.431,0,0,1,.311-.224.423.423,0,0,1,.366.108L453.962,435.748a.431.431,0,0,1-.3.747ZM307.578,367.508l143.793,67.009L331.178,322.75Z" transform="translate(-306.552 -321.617)" fill="#00a8ea"/>
      </g>
      <g id="triangle36-69" data-name="triangle36" transform="translate(786.198 570.859)">
        <path id="Path_324" data-name="Path 324" d="M624.529,372.816,573.742,353.9l51.034-29.291.005-1-52.267,30a.431.431,0,0,0,.065.78l51.947,19.348Z" transform="translate(-572.296 -323.61)" fill="#00a8ea"/>
      </g>
      <g id="triangle36-70" data-name="triangle36" transform="translate(385.348 211.602)">
        <path id="Path_325" data-name="Path 325" d="M354.818,195.844a.431.431,0,0,1-.237-.789l99.687-66.669a.432.432,0,0,1,.48.717l-99.687,66.669A.425.425,0,0,1,354.818,195.844Z" transform="translate(-354.388 -128.313)" fill="#00a8ea"/>
      </g>
      <g id="triangle36-71" data-name="triangle36" transform="translate(385.348 211.603)">
        <path id="Path_326" data-name="Path 326" d="M454.58,225.878a.464.464,0,0,1-.123-.018L354.7,195.826a.43.43,0,0,1-.116-.771l99.687-66.669a.431.431,0,0,1,.671.359l.075,96.7a.435.435,0,0,1-.434.432Zm-98.759-30.616,98.329,29.6-.074-95.312Z" transform="translate(-354.389 -128.313)" fill="#00a8ea"/>
      </g>
      <g id="triangle36-72" data-name="triangle36" transform="translate(485.035 211.602)">
        <path id="Path_327" data-name="Path 327" d="M409.084,225.879a.439.439,0,0,1-.232-.07.431.431,0,0,1-.2-.362l-.074-96.7a.435.435,0,0,1,.208-.37.428.428,0,0,1,.425-.013l99.081,52.28a.432.432,0,0,1-.026.776L409.262,225.84A.433.433,0,0,1,409.084,225.879Zm.359-96.418.074,95.32,97.591-43.787Z" transform="translate(-408.58 -128.313)" fill="#00a8ea"/>
      </g>
      <g id="triangle36-73" data-name="triangle36" transform="translate(485.034 67.668)">
        <path id="Path_328" data-name="Path 328" d="M508.091,247.145a.437.437,0,0,1-.2-.05l-99.08-52.28a.431.431,0,0,1-.206-.528L460.432,50.356a.423.423,0,0,1,.431-.285.435.435,0,0,1,.4.331l47.252,196.211a.43.43,0,0,1-.154.441A.421.421,0,0,1,508.091,247.145Zm-98.546-52.916,97.9,51.658L460.757,52Z" transform="translate(-408.579 -50.068)" fill="#00a8ea"/>
      </g>
      <g id="triangle36-74" data-name="triangle36" transform="translate(741.752 600.801)">
        <path id="Path_329" data-name="Path 329" d="M644.509,419,549.34,483.245l43.842-142.007,51.387,66.122.008-1.4-51.222-65.909a.432.432,0,0,0-.754.138L548.154,484.159a.433.433,0,0,0,.156.475.417.417,0,0,0,.254.085.429.429,0,0,0,.245-.074l95.695-64.6Z" transform="translate(-548.135 -339.886)" fill="#00a8ea"/>
      </g>
      <g id="triangle36-75" data-name="triangle36" transform="translate(741.752 679.911)">
        <path id="Path_330" data-name="Path 330" d="M644.058,471.459,549.612,448,644.5,383.939l.006-1.047-96.184,64.932a.432.432,0,0,0,.138.778l95.59,23.745Z" transform="translate(-548.134 -382.892)" fill="#00a8ea"/>
      </g>
      <g id="triangle36-76" data-name="triangle36" transform="translate(786.199 600.8)">
        <path id="Path_331" data-name="Path 331" d="M624.292,405.962,574,341.253l50.523,18.819,0-.92-51.651-19.238a.432.432,0,0,0-.491.67l51.9,66.777Z" transform="translate(-572.297 -339.886)" fill="#00a8ea"/>
      </g>
    </g>
    <g id="Group_201" data-name="Group 201" transform="translate(142.831 11.5)">
      <g id="Group_166" data-name="Group 166" transform="translate(763.434)">
        <path id="Path_332" data-name="Path 332" d="M563.307,12.438a4.5,4.5,0,1,0,4.479,4.525A4.5,4.5,0,0,0,563.307,12.438Z" transform="translate(-557.056 -10.712)" fill="#00a8ea"/>
        <path id="Path_333" data-name="Path 333" d="M564.095,13.226a4.5,4.5,0,1,1-4.523,4.479,4.5,4.5,0,0,1,4.523-4.479M564.1,11.5a6.228,6.228,0,1,0,6.2,6.26,6.234,6.234,0,0,0-6.2-6.26Z" transform="translate(-557.844 -11.5)" fill="#0d3685"/>
      </g>
      <g id="Group_167" data-name="Group 167" transform="translate(58.606 734.93)">
        <path id="Path_334" data-name="Path 334" d="M178.421,411.956a2.778,2.778,0,1,0,2.763,2.792A2.779,2.779,0,0,0,178.421,411.956Z" transform="translate(-173.902 -410.23)" fill="#00a8ea"/>
        <path id="Path_335" data-name="Path 335" d="M179.21,412.743a2.778,2.778,0,1,1-2.792,2.765,2.78,2.78,0,0,1,2.792-2.765m.007-1.725a4.5,4.5,0,1,0,4.481,4.527,4.51,4.51,0,0,0-4.481-4.527Z" transform="translate(-174.69 -411.018)" fill="#0d3685"/>
      </g>
      <g id="Group_168" data-name="Group 168" transform="translate(109.598 767.074)">
        <path id="Path_336" data-name="Path 336" d="M207.215,429.431a3.846,3.846,0,1,0,3.824,3.865A3.846,3.846,0,0,0,207.215,429.431Z" transform="translate(-201.622 -427.704)" fill="#00a8ea"/>
        <path id="Path_337" data-name="Path 337" d="M208,430.219a3.846,3.846,0,1,1-3.867,3.824A3.844,3.844,0,0,1,208,430.219m.007-1.727a5.572,5.572,0,1,0,5.544,5.6,5.578,5.578,0,0,0-5.544-5.6Z" transform="translate(-202.41 -428.492)" fill="#0d3685"/>
      </g>
      <g id="Group_169" data-name="Group 169" transform="translate(819.22 311.23)">
        <path id="Path_338" data-name="Path 338" d="M592.462,181.628a3.335,3.335,0,1,0,3.318,3.352A3.334,3.334,0,0,0,592.462,181.628Z" transform="translate(-587.382 -179.901)" fill="#00a8ea"/>
        <path id="Path_339" data-name="Path 339" d="M593.249,182.416a3.335,3.335,0,1,1-3.354,3.319,3.336,3.336,0,0,1,3.354-3.319m.009-1.727a5.062,5.062,0,1,0,5.037,5.088,5.066,5.066,0,0,0-5.037-5.088Z" transform="translate(-588.17 -180.689)" fill="#0d3685"/>
      </g>
      <g id="Group_170" data-name="Group 170" transform="translate(595.572 393.294)">
        <circle id="Ellipse_7" data-name="Ellipse 7" cx="5.719" cy="5.719" r="5.719" transform="translate(1.726 1.727)" fill="#00a8ea"/>
        <path id="Path_340" data-name="Path 340" d="M474.066,227.027a5.718,5.718,0,1,1-5.749,5.69,5.72,5.72,0,0,1,5.749-5.69m.009-1.727a7.446,7.446,0,1,0,7.406,7.483,7.454,7.454,0,0,0-7.406-7.483Z" transform="translate(-466.592 -225.3)" fill="#0d3685"/>
      </g>
      <g id="Group_171" data-name="Group 171" transform="translate(674.518 362.721)">
        <path id="Path_341" data-name="Path 341" d="M515.344,212.079a2.448,2.448,0,1,0-2.461,2.436A2.449,2.449,0,0,0,515.344,212.079Z" transform="translate(-508.72 -207.892)" fill="#00a8ea"/>
        <path id="Path_342" data-name="Path 342" d="M513.7,210.406a2.448,2.448,0,1,1-2.461,2.436,2.449,2.449,0,0,1,2.461-2.436m.007-1.726a4.175,4.175,0,1,0,4.155,4.2,4.178,4.178,0,0,0-4.155-4.2Z" transform="translate(-509.508 -208.68)" fill="#0d3685"/>
      </g>
      <g id="Group_172" data-name="Group 172" transform="translate(734.084 299.523)">
        <path id="Path_343" data-name="Path 343" d="M548.433,186.531a5.634,5.634,0,1,0-5.605-5.662A5.634,5.634,0,0,0,548.433,186.531Z" transform="translate(-541.101 -173.537)" fill="#00a8ea"/>
        <path id="Path_344" data-name="Path 344" d="M549.28,176.052a5.634,5.634,0,1,1-5.664,5.605,5.633,5.633,0,0,1,5.664-5.605m.007-1.727a7.361,7.361,0,1,0,7.323,7.4,7.372,7.372,0,0,0-7.323-7.4Z" transform="translate(-541.889 -174.325)" fill="#0d3685"/>
      </g>
      <g id="Group_173" data-name="Group 173" transform="translate(735.901 26.51)">
        <path id="Path_345" data-name="Path 345" d="M550.853,30.386a3.519,3.519,0,1,0-3.536,3.5A3.518,3.518,0,0,0,550.853,30.386Z" transform="translate(-542.089 -25.123)" fill="#00a8ea"/>
        <path id="Path_346" data-name="Path 346" d="M548.14,27.637a3.519,3.519,0,1,1-3.537,3.5,3.521,3.521,0,0,1,3.537-3.5m.009-1.725a5.246,5.246,0,1,0,5.219,5.272,5.251,5.251,0,0,0-5.219-5.272Z" transform="translate(-542.877 -25.911)" fill="#0d3685"/>
      </g>
      <g id="Group_174" data-name="Group 174" transform="translate(478.542 533.239)">
        <path id="Path_347" data-name="Path 347" d="M409.028,302.315a5.091,5.091,0,1,0,5.066,5.116A5.091,5.091,0,0,0,409.028,302.315Z" transform="translate(-402.185 -300.588)" fill="#00a8ea"/>
        <path id="Path_348" data-name="Path 348" d="M409.816,303.1a5.091,5.091,0,1,1-5.116,5.064,5.091,5.091,0,0,1,5.116-5.064m.009-1.727a6.817,6.817,0,1,0,6.782,6.852,6.827,6.827,0,0,0-6.782-6.852Z" transform="translate(-402.973 -301.376)" fill="#0d3685"/>
      </g>
      <g id="Group_175" data-name="Group 175" transform="translate(557.146 734.603)">
        <path id="Path_349" data-name="Path 349" d="M451.037,411.779a4.373,4.373,0,1,0,4.351,4.395A4.371,4.371,0,0,0,451.037,411.779Z" transform="translate(-444.915 -410.052)" fill="#00a8ea"/>
        <path id="Path_350" data-name="Path 350" d="M451.825,412.567a4.373,4.373,0,1,1-4.395,4.351,4.372,4.372,0,0,1,4.395-4.351m.009-1.727a6.1,6.1,0,1,0,6.069,6.131,6.108,6.108,0,0,0-6.069-6.131Z" transform="translate(-445.703 -410.84)" fill="#0d3685"/>
      </g>
      <g id="Group_176" data-name="Group 176" transform="translate(609.683 752.408)">
        <path id="Path_351" data-name="Path 351" d="M480.9,421.457a5.671,5.671,0,1,0,5.64,5.7A5.673,5.673,0,0,0,480.9,421.457Z" transform="translate(-473.475 -419.731)" fill="#00a8ea"/>
        <path id="Path_352" data-name="Path 352" d="M481.689,422.245a5.671,5.671,0,1,1-5.7,5.642,5.67,5.67,0,0,1,5.7-5.642m.007-1.726a7.4,7.4,0,1,0,7.36,7.434,7.4,7.4,0,0,0-7.36-7.434Z" transform="translate(-474.263 -420.519)" fill="#0d3685"/>
      </g>
      <g id="Group_177" data-name="Group 177" transform="translate(637.725 643.784)">
        <path id="Path_353" data-name="Path 353" d="M493.637,362.409a3.174,3.174,0,1,0,3.157,3.19A3.174,3.174,0,0,0,493.637,362.409Z" transform="translate(-488.719 -360.682)" fill="#00a8ea"/>
        <path id="Path_354" data-name="Path 354" d="M494.424,363.2a3.174,3.174,0,1,1-3.192,3.157,3.173,3.173,0,0,1,3.192-3.157m.007-1.727a4.9,4.9,0,1,0,4.877,4.926,4.907,4.907,0,0,0-4.877-4.926Z" transform="translate(-489.507 -361.47)" fill="#0d3685"/>
      </g>
      <g id="Group_178" data-name="Group 178" transform="translate(741.762 585.736)">
        <path id="Path_355" data-name="Path 355" d="M553.177,330.853a6.144,6.144,0,1,0,6.113,6.175A6.142,6.142,0,0,0,553.177,330.853Z" transform="translate(-545.275 -329.126)" fill="#00a8ea"/>
        <path id="Path_356" data-name="Path 356" d="M553.966,331.641a6.144,6.144,0,1,1-6.175,6.113,6.142,6.142,0,0,1,6.175-6.113m.009-1.727a7.871,7.871,0,1,0,7.831,7.912,7.88,7.88,0,0,0-7.831-7.912Z" transform="translate(-546.063 -329.914)" fill="#0d3685"/>
      </g>
      <g id="Group_179" data-name="Group 179" transform="translate(0 699.366)">
        <path id="Path_357" data-name="Path 357" d="M146.309,392.623a2.528,2.528,0,1,0,2.515,2.54A2.527,2.527,0,0,0,146.309,392.623Z" transform="translate(-142.043 -390.897)" fill="#00a8ea"/>
        <path id="Path_358" data-name="Path 358" d="M147.1,393.41a2.528,2.528,0,1,1-2.54,2.515,2.527,2.527,0,0,1,2.54-2.515m.009-1.725a4.254,4.254,0,1,0,4.233,4.275,4.256,4.256,0,0,0-4.233-4.275Z" transform="translate(-142.831 -391.685)" fill="#0d3685"/>
      </g>
      <g id="Group_180" data-name="Group 180" transform="translate(120.86 626.119)">
        <path id="Path_359" data-name="Path 359" d="M213.579,352.8a4.088,4.088,0,1,0,4.067,4.108A4.088,4.088,0,0,0,213.579,352.8Z" transform="translate(-207.744 -351.079)" fill="#00a8ea"/>
        <path id="Path_360" data-name="Path 360" d="M214.367,353.592a4.088,4.088,0,1,1-4.108,4.067,4.088,4.088,0,0,1,4.108-4.067m.009-1.725a5.813,5.813,0,1,0,5.784,5.842,5.82,5.82,0,0,0-5.784-5.842Z" transform="translate(-208.532 -351.867)" fill="#0d3685"/>
      </g>
      <g id="Group_181" data-name="Group 181" transform="translate(361.665 369.235)">
        <path id="Path_361" data-name="Path 361" d="M342.857,213.16a2.467,2.467,0,1,0,2.454,2.48A2.468,2.468,0,0,0,342.857,213.16Z" transform="translate(-338.649 -211.433)" fill="#00a8ea"/>
        <path id="Path_362" data-name="Path 362" d="M343.644,213.948a2.467,2.467,0,1,1-2.482,2.454,2.466,2.466,0,0,1,2.482-2.454m.007-1.727a4.194,4.194,0,1,0,4.174,4.216,4.2,4.2,0,0,0-4.174-4.216Z" transform="translate(-339.437 -212.221)" fill="#0d3685"/>
      </g>
      <g id="Group_182" data-name="Group 182" transform="translate(503.31 469.508)">
        <path id="Path_363" data-name="Path 363" d="M423.03,267.669a5.625,5.625,0,1,0,5.6,5.655A5.628,5.628,0,0,0,423.03,267.669Z" transform="translate(-415.649 -265.943)" fill="#00a8ea"/>
        <path id="Path_364" data-name="Path 364" d="M423.817,268.457a5.625,5.625,0,1,1-5.653,5.6,5.625,5.625,0,0,1,5.653-5.6m.009-1.726a7.351,7.351,0,1,0,7.314,7.388,7.358,7.358,0,0,0-7.314-7.388Z" transform="translate(-416.437 -266.731)" fill="#0d3685"/>
      </g>
      <g id="Group_183" data-name="Group 183" transform="translate(396.499 485.032)">
        <path id="Path_365" data-name="Path 365" d="M362.1,281.72a2.806,2.806,0,1,0-2.792-2.82A2.806,2.806,0,0,0,362.1,281.72Z" transform="translate(-357.585 -274.383)" fill="#00a8ea"/>
        <path id="Path_366" data-name="Path 366" d="M362.919,276.9a2.806,2.806,0,1,1-2.82,2.792,2.807,2.807,0,0,1,2.82-2.792m.009-1.725a4.533,4.533,0,1,0,4.511,4.555,4.535,4.535,0,0,0-4.511-4.555Z" transform="translate(-358.373 -275.17)" fill="#0d3685"/>
      </g>
      <g id="Group_184" data-name="Group 184" transform="translate(400.564 506.082)">
        <path id="Path_367" data-name="Path 367" d="M364.71,287.552a3.171,3.171,0,1,0,3.155,3.188A3.172,3.172,0,0,0,364.71,287.552Z" transform="translate(-359.795 -285.825)" fill="#00a8ea"/>
        <path id="Path_368" data-name="Path 368" d="M365.5,288.34a3.171,3.171,0,1,1-3.188,3.155,3.172,3.172,0,0,1,3.188-3.155m.009-1.727a4.9,4.9,0,1,0,4.873,4.924,4.905,4.905,0,0,0-4.873-4.924Z" transform="translate(-360.583 -286.613)" fill="#0d3685"/>
      </g>
      <g id="Group_185" data-name="Group 185" transform="translate(451.585 544.683)">
        <path id="Path_369" data-name="Path 369" d="M391.753,308.535a2.483,2.483,0,1,0,2.47,2.5A2.484,2.484,0,0,0,391.753,308.535Z" transform="translate(-387.531 -306.809)" fill="#00a8ea"/>
        <path id="Path_370" data-name="Path 370" d="M392.541,309.323a2.483,2.483,0,1,1-2.5,2.47,2.484,2.484,0,0,1,2.5-2.47m.009-1.726a4.209,4.209,0,1,0,4.187,4.229,4.212,4.212,0,0,0-4.187-4.229Z" transform="translate(-388.319 -307.597)" fill="#0d3685"/>
      </g>
      <g id="Group_186" data-name="Group 186" transform="translate(687.043 544.059)">
        <path id="Path_371" data-name="Path 371" d="M521.594,308.2a4.317,4.317,0,1,0,4.293,4.338A4.316,4.316,0,0,0,521.594,308.2Z" transform="translate(-515.529 -306.47)" fill="#00a8ea"/>
        <path id="Path_372" data-name="Path 372" d="M522.382,308.985a4.317,4.317,0,1,1-4.339,4.294,4.314,4.314,0,0,1,4.339-4.294m.009-1.727a6.043,6.043,0,1,0,6.012,6.074,6.049,6.049,0,0,0-6.012-6.074Z" transform="translate(-516.317 -307.258)" fill="#0d3685"/>
      </g>
      <g id="Group_187" data-name="Group 187" transform="translate(735.022 359.673)">
        <path id="Path_373" data-name="Path 373" d="M548.324,207.962a4.961,4.961,0,1,0,4.937,4.987A4.961,4.961,0,0,0,548.324,207.962Z" transform="translate(-541.611 -206.235)" fill="#00a8ea"/>
        <path id="Path_374" data-name="Path 374" d="M549.111,208.75a4.961,4.961,0,1,1-4.987,4.935,4.961,4.961,0,0,1,4.987-4.935m.009-1.727a6.689,6.689,0,1,0,6.656,6.722,6.7,6.7,0,0,0-6.656-6.722Z" transform="translate(-542.399 -207.023)" fill="#0d3685"/>
      </g>
      <g id="Group_188" data-name="Group 188" transform="translate(144.884 669.882)">
        <path id="Path_375" data-name="Path 375" d="M227.938,376.6A5.38,5.38,0,1,0,233.291,382,5.379,5.379,0,0,0,227.938,376.6Z" transform="translate(-220.804 -374.869)" fill="#00a8ea"/>
        <path id="Path_376" data-name="Path 376" d="M228.726,377.383a5.381,5.381,0,1,1-5.408,5.353,5.382,5.382,0,0,1,5.408-5.353m.009-1.725a7.107,7.107,0,1,0,7.071,7.143,7.114,7.114,0,0,0-7.071-7.143Z" transform="translate(-221.592 -375.657)" fill="#0d3685"/>
      </g>
      <g id="Group_189" data-name="Group 189" transform="translate(197.429 612.089)">
        <path id="Path_377" data-name="Path 377" d="M257.292,348.293a3.1,3.1,0,1,0-3.114,3.081A3.1,3.1,0,0,0,257.292,348.293Z" transform="translate(-249.368 -343.452)" fill="#00a8ea"/>
        <path id="Path_378" data-name="Path 378" d="M255,345.967a3.1,3.1,0,1,1-3.114,3.081A3.1,3.1,0,0,1,255,345.967m.009-1.727a4.825,4.825,0,1,0,4.8,4.849,4.832,4.832,0,0,0-4.8-4.849Z" transform="translate(-250.156 -344.24)" fill="#0d3685"/>
      </g>
      <g id="Group_190" data-name="Group 190" transform="translate(266.382 768.568)">
        <path id="Path_379" data-name="Path 379" d="M293.471,430.243a4.868,4.868,0,1,0,4.843,4.893A4.869,4.869,0,0,0,293.471,430.243Z" transform="translate(-286.852 -428.516)" fill="#00a8ea"/>
        <path id="Path_380" data-name="Path 380" d="M294.259,431.031a4.868,4.868,0,1,1-4.893,4.844,4.866,4.866,0,0,1,4.893-4.844m.009-1.727a6.6,6.6,0,1,0,6.562,6.63,6.6,6.6,0,0,0-6.562-6.63Z" transform="translate(-287.64 -429.304)" fill="#0d3685"/>
      </g>
      <g id="Group_191" data-name="Group 191" transform="translate(294.787 609.747)">
        <path id="Path_381" data-name="Path 381" d="M309.137,343.906a5.091,5.091,0,1,0,5.064,5.116A5.091,5.091,0,0,0,309.137,343.906Z" transform="translate(-302.293 -342.179)" fill="#00a8ea"/>
        <path id="Path_382" data-name="Path 382" d="M309.924,344.694a5.091,5.091,0,1,1-5.118,5.064,5.091,5.091,0,0,1,5.118-5.064m.009-1.727a6.817,6.817,0,1,0,6.781,6.852,6.825,6.825,0,0,0-6.781-6.852Z" transform="translate(-303.081 -342.967)" fill="#0d3685"/>
      </g>
      <g id="Group_192" data-name="Group 192" transform="translate(442.121 678.752)">
        <path id="Path_383" data-name="Path 383" d="M388.576,381.418a4.44,4.44,0,1,0,4.417,4.463A4.439,4.439,0,0,0,388.576,381.418Z" transform="translate(-382.386 -379.691)" fill="#00a8ea"/>
        <path id="Path_384" data-name="Path 384" d="M389.364,382.206a4.44,4.44,0,1,1-4.465,4.417,4.438,4.438,0,0,1,4.465-4.417m.009-1.727a6.167,6.167,0,1,0,6.135,6.2,6.174,6.174,0,0,0-6.135-6.2Z" transform="translate(-383.174 -380.479)" fill="#0d3685"/>
      </g>
      <g id="Group_193" data-name="Group 193" transform="translate(320.693 565.919)">
        <path id="Path_385" data-name="Path 385" d="M321.379,320.08a3.259,3.259,0,1,0,3.243,3.276A3.259,3.259,0,0,0,321.379,320.08Z" transform="translate(-316.376 -318.353)" fill="#00a8ea"/>
        <path id="Path_386" data-name="Path 386" d="M322.168,320.868a3.259,3.259,0,1,1-3.276,3.243,3.26,3.26,0,0,1,3.276-3.243m.009-1.727a4.986,4.986,0,1,0,4.959,5.011,4.994,4.994,0,0,0-4.959-5.011Z" transform="translate(-317.164 -319.141)" fill="#0d3685"/>
      </g>
      <g id="Group_194" data-name="Group 194" transform="translate(383.975 276.358)">
        <path id="Path_387" data-name="Path 387" d="M356.422,162.67a3.9,3.9,0,1,0,3.88,3.92A3.9,3.9,0,0,0,356.422,162.67Z" transform="translate(-350.777 -160.944)" fill="#00a8ea"/>
        <path id="Path_388" data-name="Path 388" d="M357.211,163.458a3.9,3.9,0,1,1-3.918,3.88,3.9,3.9,0,0,1,3.918-3.88m.009-1.725a5.625,5.625,0,1,0,5.6,5.653,5.632,5.632,0,0,0-5.6-5.653Z" transform="translate(-351.565 -161.732)" fill="#0d3685"/>
      </g>
      <g id="Group_195" data-name="Group 195" transform="translate(484.74 307.393)">
        <path id="Path_389" data-name="Path 389" d="M410.191,179.542a2.9,2.9,0,1,0,2.881,2.91A2.894,2.894,0,0,0,410.191,179.542Z" transform="translate(-405.554 -177.815)" fill="#00a8ea"/>
        <path id="Path_390" data-name="Path 390" d="M410.979,180.33a2.9,2.9,0,1,1-2.91,2.881,2.9,2.9,0,0,1,2.91-2.881m.009-1.727a4.623,4.623,0,1,0,4.6,4.647,4.629,4.629,0,0,0-4.6-4.647Z" transform="translate(-406.342 -178.603)" fill="#0d3685"/>
      </g>
      <g id="Group_196" data-name="Group 196" transform="translate(481.327 207.353)">
        <path id="Path_391" data-name="Path 391" d="M411.627,137.627a6.234,6.234,0,1,0-6.2-6.267A6.234,6.234,0,0,0,411.627,137.627Z" transform="translate(-403.699 -123.432)" fill="#00a8ea"/>
        <path id="Path_392" data-name="Path 392" d="M412.48,125.947a6.234,6.234,0,1,1-6.266,6.2,6.234,6.234,0,0,1,6.266-6.2m.009-1.727a7.961,7.961,0,1,0,7.919,8,7.972,7.972,0,0,0-7.919-8Z" transform="translate(-404.487 -124.22)" fill="#0d3685"/>
      </g>
      <g id="Group_197" data-name="Group 197" transform="translate(583.46 262.685)">
        <path id="Path_393" data-name="Path 393" d="M464.145,155.238a3.182,3.182,0,1,0,3.164,3.2A3.184,3.184,0,0,0,464.145,155.238Z" transform="translate(-459.22 -153.511)" fill="#00a8ea"/>
        <path id="Path_394" data-name="Path 394" d="M464.932,156.026a3.182,3.182,0,1,1-3.2,3.166,3.18,3.18,0,0,1,3.2-3.166m.007-1.727a4.909,4.909,0,1,0,4.884,4.934,4.914,4.914,0,0,0-4.884-4.934Z" transform="translate(-460.008 -154.299)" fill="#0d3685"/>
      </g>
      <g id="Group_198" data-name="Group 198" transform="translate(535.851 66.119)">
        <path id="Path_395" data-name="Path 395" d="M438.62,48.382a3.537,3.537,0,1,0,3.519,3.554A3.535,3.535,0,0,0,438.62,48.382Z" transform="translate(-433.339 -46.655)" fill="#00a8ea"/>
        <path id="Path_396" data-name="Path 396" d="M439.408,49.17a3.537,3.537,0,1,1-3.554,3.519,3.535,3.535,0,0,1,3.554-3.519m.009-1.727a5.264,5.264,0,1,0,5.237,5.291,5.269,5.269,0,0,0-5.237-5.291Z" transform="translate(-434.127 -47.443)" fill="#0d3685"/>
      </g>
      <g id="Group_199" data-name="Group 199" transform="translate(740.973 743.451)">
        <path id="Path_397" data-name="Path 397" d="M549.9,416.588a3.3,3.3,0,1,0,3.287,3.322A3.3,3.3,0,0,0,549.9,416.588Z" transform="translate(-544.845 -414.862)" fill="#00a8ea"/>
        <path id="Path_398" data-name="Path 398" d="M550.684,417.376a3.3,3.3,0,1,1-3.322,3.289,3.306,3.306,0,0,1,3.322-3.289m.007-1.726a5.031,5.031,0,1,0,5.007,5.057,5.037,5.037,0,0,0-5.007-5.057Z" transform="translate(-545.634 -415.65)" fill="#0d3685"/>
      </g>
      <g id="Group_200" data-name="Group 200" transform="translate(784.612 598.672)">
        <circle id="Ellipse_8" data-name="Ellipse 8" cx="4.113" cy="4.113" r="4.113" transform="translate(1.726 1.727)" fill="#00a8ea"/>
        <path id="Path_399" data-name="Path 399" d="M575.218,338.673a4.113,4.113,0,1,1-4.135,4.093,4.114,4.114,0,0,1,4.135-4.093m.009-1.727a5.841,5.841,0,1,0,5.809,5.87,5.847,5.847,0,0,0-5.809-5.87Z" transform="translate(-569.357 -336.946)" fill="#0d3685"/>
      </g>
    </g>
  </g>
</svg>
