<svg xmlns="http://www.w3.org/2000/svg" width="56.25" height="45.001" viewBox="0 0 56.25 45.001">
  <path id="Path_1316" data-name="Path 1316" d="M28.125-33.75a9.861,9.861,0,0,0-9.844,9.844A1.407,1.407,0,0,0,19.688-22.5a1.407,1.407,0,0,0,1.406-1.406,7.043,7.043,0,0,1,7.031-7.031,1.407,1.407,0,0,0,1.406-1.406A1.407,1.407,0,0,0,28.125-33.75Zm0-5.625A15.407,15.407,0,0,0,12.656-23.886,15.345,15.345,0,0,0,16.485-13.73c2.255,2.568,4.419,6.76,4.609,8.105L21.1.984a1.394,1.394,0,0,0,.236.776L23.489,5a1.4,1.4,0,0,0,1.17.628H31.59A1.4,1.4,0,0,0,32.761,5l2.153-3.24a1.42,1.42,0,0,0,.236-.776l.005-6.607c.2-1.382,2.373-5.554,4.609-8.105a15.4,15.4,0,0,0,3.826-10.177,15.467,15.467,0,0,0-15.46-15.46S28.128-39.375,28.125-39.375ZM32.339.555l-1.5,2.258H25.411L23.911.555V0h8.43Zm.005-3.367H23.906L23.9-5.625h8.443Zm5.309-12.771a29.916,29.916,0,0,0-4.445,7.145H23.047A29.976,29.976,0,0,0,18.6-15.584a12.56,12.56,0,0,1-3.123-8.3s0-.014,0-.019A12.556,12.556,0,0,1,28.125-36.562,12.67,12.67,0,0,1,40.781-23.906a12.6,12.6,0,0,1-3.131,8.322ZM8.438-23.906a1.407,1.407,0,0,0-1.406-1.406H1.406A1.407,1.407,0,0,0,0-23.906,1.407,1.407,0,0,0,1.406-22.5H7.031A1.407,1.407,0,0,0,8.438-23.906ZM46.406-33.75a1.42,1.42,0,0,0,.629-.149l5.625-2.812a1.407,1.407,0,0,0,.778-1.259,1.407,1.407,0,0,0-1.406-1.406,1.412,1.412,0,0,0-.631.15l-5.625,2.813A1.407,1.407,0,0,0,45-35.155,1.407,1.407,0,0,0,46.4-33.749Zm8.438,8.438H49.219a1.407,1.407,0,0,0-1.406,1.406A1.407,1.407,0,0,0,49.219-22.5h5.625a1.407,1.407,0,0,0,1.406-1.406A1.407,1.407,0,0,0,54.844-25.312Zm-44.371-11.1L4.848-39.226a1.4,1.4,0,0,0-.628-.148,1.407,1.407,0,0,0-1.406,1.406,1.4,1.4,0,0,0,.776,1.257L9.214-33.9a1.42,1.42,0,0,0,.629.149h0a1.407,1.407,0,0,0,1.406-1.406A1.4,1.4,0,0,0,10.473-36.414ZM52.661-11.1l-5.625-2.812a1.4,1.4,0,0,0-.628-.148A1.407,1.407,0,0,0,45-12.655a1.4,1.4,0,0,0,.776,1.257L51.4-8.585a1.4,1.4,0,0,0,.628.148,1.407,1.407,0,0,0,1.407-1.407A1.4,1.4,0,0,0,52.661-11.1ZM9.844-14.062a1.42,1.42,0,0,0-.629.149L3.589-11.1a1.407,1.407,0,0,0-.779,1.259A1.407,1.407,0,0,0,4.217-8.436a1.413,1.413,0,0,0,.631-.149L10.473-11.4a1.407,1.407,0,0,0,.78-1.259,1.407,1.407,0,0,0-1.406-1.406Z" transform="translate(0 39.376)" fill="#0d3685"/>
</svg>
