<svg xmlns="http://www.w3.org/2000/svg" width="107" height="44.058" viewBox="0 0 107 44.058">
  <g id="Group_281" data-name="Group 281" transform="translate(-522.667 -262.489)">
    <path id="Path_1191" data-name="Path 1191" d="M534.836,272.377a11.863,11.863,0,0,1,4.753.95,12.662,12.662,0,0,1,3.885,2.608,12.09,12.09,0,0,1,2.634,3.857,12.287,12.287,0,0,1,0,9.48,12.388,12.388,0,0,1-6.519,6.546,11.847,11.847,0,0,1-4.753.951H527.5v9.778h-4.835v-22a11.837,11.837,0,0,1,.951-4.753,12.194,12.194,0,0,1,6.491-6.465A11.927,11.927,0,0,1,534.836,272.377Zm2.879,18.986a7.345,7.345,0,0,0,4.509-6.818,7.173,7.173,0,0,0-.57-2.852,7.412,7.412,0,0,0-1.576-2.336,7.411,7.411,0,0,0-5.242-2.146,7.163,7.163,0,0,0-2.852.571,7.382,7.382,0,0,0-3.912,3.911,7.173,7.173,0,0,0-.57,2.852v7.389h7.334A7.352,7.352,0,0,0,537.715,291.363Z" fill="#120057"/>
    <path id="Path_1192" data-name="Path 1192" d="M563.3,272.268V277.1h-2.445a7.166,7.166,0,0,0-2.852.57,7.382,7.382,0,0,0-3.911,3.912,7.154,7.154,0,0,0-.571,2.852V296.66h-4.889V284.437a11.855,11.855,0,0,1,.95-4.754,12.089,12.089,0,0,1,2.635-3.857,12.546,12.546,0,0,1,3.912-2.607,11.905,11.905,0,0,1,4.726-.951Z" fill="#120057"/>
    <path id="Path_1193" data-name="Path 1193" d="M597.126,262.489V296.66h-4.835V262.489Z" fill="#120057"/>
    <path id="Path_1194" data-name="Path 1194" d="M603.754,272.268V296.66h-4.781V272.268Z" fill="#120057"/>
    <path id="Path_1195" data-name="Path 1195" d="M627.277,272.268V277.1H612.554a2.413,2.413,0,0,0-2.445,2.445,2.449,2.449,0,0,0,.707,1.765,2.316,2.316,0,0,0,1.738.733h9.779a7.174,7.174,0,0,1,2.852.571,7.629,7.629,0,0,1,2.336,1.548,7.085,7.085,0,0,1,1.575,2.309,7.408,7.408,0,0,1,0,5.7,7.382,7.382,0,0,1-3.911,3.912,7.173,7.173,0,0,1-2.852.57H607.665v-4.835h14.668a2.417,2.417,0,0,0,2.5-2.5,2.364,2.364,0,0,0-.707-1.738,2.427,2.427,0,0,0-1.792-.706h-9.779a7.167,7.167,0,0,1-2.852-.571,7.059,7.059,0,0,1-2.309-1.575,7.605,7.605,0,0,1-1.548-2.336,7.411,7.411,0,0,1,0-5.7,7.189,7.189,0,0,1,3.857-3.857,7.166,7.166,0,0,1,2.852-.57Z" fill="#120057"/>
    <g id="Group_280" data-name="Group 280">
      <path id="Path_1196" data-name="Path 1196" d="M586.453,275.053a12.93,12.93,0,0,0-20.384,1.569C571.343,278.6,582.5,277.109,586.453,275.053Z" fill="#b3393c"/>
      <path id="Path_1197" data-name="Path 1197" d="M588.642,278.381q-.129-.284-.271-.559a12.778,12.778,0,0,0-.877-1.459c-9.3,5.13-18.146,5.726-22.858,3.174q-.106.311-.2.629c-.033.115-.064.229-.094.345q-.1.383-.172.773c5.6,2.728,18.237,2.154,24.982-1.592A12.821,12.821,0,0,0,588.642,278.381Z" fill="#b3393c"/>
      <path id="Path_1198" data-name="Path 1198" d="M589.789,283.262q-.013-.37-.047-.737a12.944,12.944,0,0,0-.239-1.549c-9.9,6.3-20.434,6.811-25.546,3.433.012.217.028.433.05.648q.013.132.03.264c.028.227.062.453.1.676,4.961,2.974,18.258,3.32,25.645-1.643.01-.207.015-.414.015-.623C589.8,283.574,589.794,283.418,589.789,283.262Z" fill="#b3393c"/>
      <path id="Path_1199" data-name="Path 1199" d="M576.869,296.66A12.933,12.933,0,0,0,589.6,285.969c-9.721,6.417-19.652,6.375-24.128,3.88A12.925,12.925,0,0,0,576.869,296.66Z" fill="#b3393c"/>
    </g>
  </g>
</svg>
